<svg width="11" height="11" viewBox="0 0 11 11" fill="none" xmlns="http://www.w3.org/2000/svg">
<g clip-path="url(#clip0_119001_7584)">
<path d="M4.47403 9.26192H2.56234C2.31902 9.26192 2.19735 9.26192 2.10441 9.21457C2.02266 9.17291 1.9562 9.10645 1.91454 9.0247C1.86719 8.93176 1.86719 8.81009 1.86719 8.56677V2.13656C1.86719 1.89324 1.86719 1.77157 1.91454 1.67863C1.9562 1.59688 2.02266 1.53042 2.10441 1.48876C2.19735 1.44141 2.31902 1.44141 2.56234 1.44141H3.77887C4.0222 1.44141 4.14386 1.44141 4.2368 1.48876C4.31855 1.53042 4.38502 1.59688 4.42667 1.67863C4.47403 1.77157 4.47403 1.89324 4.47403 2.13656V3.1793M4.47403 9.26192H7.08087M4.47403 9.26192L4.47403 3.1793M4.47403 3.1793H6.38571C6.62904 3.1793 6.7507 3.1793 6.84364 3.22665C6.92539 3.26831 6.99186 3.33477 7.03351 3.41653C7.08087 3.50946 7.08087 3.63113 7.08087 3.87446V9.26192M7.08087 4.91719H8.99255C9.23587 4.91719 9.35754 4.91719 9.45048 4.96455C9.53223 5.0062 9.59869 5.07267 9.64035 5.15442C9.6877 5.24736 9.6877 5.36902 9.6877 5.61235V8.56677C9.6877 8.81009 9.6877 8.93176 9.64035 9.0247C9.59869 9.10645 9.53223 9.17291 9.45048 9.21457C9.35754 9.26192 9.23587 9.26192 8.99255 9.26192H7.08087" stroke="black" stroke-width="0.65171" stroke-linecap="round" stroke-linejoin="round"/>
</g>
<defs>
<clipPath id="clip0_119001_7584">
<rect width="10.4274" height="10.4274" fill="white" transform="translate(0.563965 0.137695)"/>
</clipPath>
</defs>
</svg>
