<svg width="10" height="10" viewBox="0 0 10 10" fill="none" xmlns="http://www.w3.org/2000/svg">
<g clip-path="url(#clip0_119001_7461)">
<path d="M8.80899 1.43688C7.80522 0.427452 6.14864 0.477631 5.19295 1.5269C4.23719 0.477668 2.58068 0.427433 1.57691 1.4369C0.578752 2.43094 0.612755 4.06782 1.64121 5.02724C1.11505 5.52975 1.41648 6.43276 2.13263 6.52078C2.08973 7.01117 2.50712 7.46087 3.00083 7.45253C3.0311 7.99238 3.57294 8.3788 4.09241 8.23614C4.26283 8.8793 5.0821 9.09907 5.55211 8.62571C5.81906 8.36036 6.03134 8.19304 6.04488 7.79116C6.48596 7.77886 6.8676 7.39205 6.87432 6.95122C7.31964 6.94435 7.70763 6.55624 7.71448 6.11105C8.17646 6.10403 8.57702 5.68707 8.55551 5.21637L8.80895 4.96295C9.78111 3.9908 9.78111 2.40901 8.80899 1.43688ZM2.02334 5.433L2.26139 5.19495C2.32291 5.13343 2.4037 5.10267 2.48452 5.10267C2.76164 5.10084 2.90629 5.44345 2.70761 5.64118L2.46957 5.87923C2.16144 6.1629 1.73963 5.74126 2.02334 5.433ZM2.68709 6.58032C2.68709 6.49603 2.71993 6.41678 2.77952 6.35719L3.0177 6.11903C3.07727 6.05951 3.15646 6.02674 3.24068 6.02674C3.52016 6.02625 3.66182 6.36807 3.46379 6.56539L3.25375 6.77543C3.18955 6.84819 3.10136 6.89742 3.00262 6.89585C2.83304 6.89934 2.68358 6.74993 2.68709 6.58032ZM3.6477 7.61559C3.5253 7.49814 3.5253 7.28682 3.6477 7.16938L3.85774 6.95932C3.9802 6.81395 4.19518 6.79502 4.33199 6.93132C4.45501 7.05435 4.45501 7.25449 4.33199 7.37754L4.09393 7.61561C3.97091 7.73868 3.77074 7.73866 3.6477 7.61559ZM5.39623 7.99371L5.15818 8.23176C5.09859 8.29135 5.01935 8.32419 4.93507 8.32419C4.85078 8.32419 4.77153 8.29135 4.71194 8.23176C4.58956 8.1143 4.5895 7.90298 4.71196 7.78553L4.94998 7.54749C5.073 7.42445 5.2732 7.42445 5.39621 7.54747C5.51863 7.66493 5.51865 7.87625 5.39623 7.99371ZM7.90628 5.46266C7.78882 5.58506 7.5775 5.58508 7.46006 5.46266L6.2203 4.22291L5.82635 4.61685L7.06611 5.85661C7.18912 5.97964 7.18912 6.1798 7.06611 6.30283C6.94307 6.4259 6.74291 6.42587 6.61988 6.30283L5.40115 5.0841L5.38013 5.06308L4.98618 5.45703L5.0072 5.47805L6.22593 6.69678C6.34896 6.81982 6.34896 7.01999 6.22593 7.14303C6.1029 7.26606 5.90272 7.26606 5.77969 7.14303L5.77944 7.14327C5.55308 6.92443 5.23672 6.85237 4.95099 6.9271C4.86003 6.55542 4.48639 6.27403 4.11066 6.28222C4.09244 5.88216 3.75423 5.52077 3.35454 5.47759C3.40728 4.7912 2.65344 4.31851 2.05854 4.65663C1.23 3.91654 1.17897 2.61732 1.9709 1.83083C2.75828 1.03794 4.05926 1.09048 4.79904 1.92085L4.11031 2.60958L4.66219 3.16145C5.08611 3.58541 5.73937 3.64375 6.22643 3.33651L7.90634 5.01643C8.0293 5.13945 8.0293 5.33962 7.90628 5.46266ZM8.41504 4.569L8.33015 4.65387C8.32047 4.64321 8.3105 4.63273 8.30025 4.62248L6.24833 2.57054L6.05134 2.76751C5.77697 3.04188 5.33052 3.04191 5.0561 2.76751L4.89817 2.60958L5.67691 1.83083C7.56859 0.0897361 10.1558 2.67855 8.41504 4.569Z" fill="#111111"/>
</g>
<defs>
<clipPath id="clip0_119001_7461">
<rect width="8.68946" height="8.68946" fill="white" transform="translate(0.848633 0.450195)"/>
</clipPath>
</defs>
</svg>
