<svg width="11" height="12" viewBox="0 0 11 12" fill="none" xmlns="http://www.w3.org/2000/svg">
<g clip-path="url(#clip0_119001_7571)">
<path d="M3.97157 5.55016C4.04067 5.55026 4.107 5.52277 4.15586 5.47391C4.20472 5.42505 4.23221 5.35872 4.23211 5.28962C4.23211 5.14571 4.34883 5.02899 4.49275 5.02899C4.63667 5.02899 4.75338 5.14571 4.75338 5.28962C4.75338 5.43354 4.87001 5.55016 5.01392 5.55016C5.15794 5.55016 5.27456 5.43354 5.27456 5.28962C5.27456 4.85778 4.9245 4.50781 4.49275 4.50781C4.061 4.50781 3.71094 4.85778 3.71094 5.28962C3.71094 5.35872 3.73833 5.42505 3.78719 5.47391C3.83615 5.52277 3.90238 5.55026 3.97157 5.55016Z" fill="black"/>
<path d="M7.50305 7.27076C6.52979 7.7573 5.06113 7.7573 4.08768 7.27076C3.95894 7.20634 3.80243 7.25855 3.73801 7.38729C3.67368 7.51603 3.72579 7.67264 3.85453 7.73697C4.46112 8.02308 5.12479 8.16719 5.79532 8.15841C6.46585 8.16719 7.12961 8.02299 7.73611 7.73697C7.86485 7.67264 7.91705 7.51603 7.85273 7.38729C7.78831 7.25855 7.63179 7.20634 7.50305 7.27076Z" fill="black"/>
<path d="M10.2259 5.02841H9.96523V4.2466C9.96457 3.52729 9.38155 2.94428 8.66225 2.94361H7.88044V2.37433C8.23937 2.2475 8.45477 1.88036 8.39035 1.5051C8.32593 1.12975 8.00059 0.855469 7.6198 0.855469C7.23901 0.855469 6.91367 1.12975 6.84925 1.5051C6.78483 1.88036 7.00023 2.2475 7.35916 2.37433V2.94361H4.23192V2.37433C4.59095 2.2475 4.80625 1.88036 4.74193 1.5051C4.67751 1.12975 4.35217 0.855469 3.97138 0.855469C3.59059 0.855469 3.26515 1.12975 3.20083 1.5051C3.13641 1.88036 3.35171 2.2475 3.71074 2.37433V2.94361H2.92893C2.20963 2.94437 1.62671 3.52729 1.62594 4.2466V5.02841H1.36531C0.933746 5.02888 0.583973 5.37866 0.583496 5.81022V6.85267C0.583973 7.28423 0.933746 7.634 1.36531 7.63448H1.62594V8.67683C1.62671 9.39623 2.20963 9.97915 2.92893 9.97991H4.23192V11.0223C4.23201 11.117 4.28345 11.2043 4.36629 11.2502C4.44913 11.2961 4.55039 11.2934 4.63065 11.2432L6.65217 9.97991H8.66225C9.38155 9.97924 9.96457 9.39623 9.96523 8.67683V7.63448H10.2259C10.6574 7.634 11.0072 7.28423 11.0077 6.85267V5.81022C11.0072 5.37866 10.6574 5.02888 10.2259 5.02841ZM7.6198 1.37998C7.76372 1.37998 7.88044 1.49661 7.88044 1.64053C7.88044 1.78454 7.76372 1.90116 7.6198 1.90116C7.47588 1.90116 7.35916 1.78454 7.35916 1.64053C7.35945 1.4968 7.47598 1.38027 7.6198 1.37998ZM3.97138 1.37998C4.1153 1.37998 4.23192 1.49661 4.23192 1.64053C4.23192 1.78454 4.1153 1.90116 3.97138 1.90116C3.82746 1.90116 3.71074 1.78454 3.71074 1.64053C3.71093 1.4967 3.82746 1.38018 3.97138 1.37998ZM1.36531 7.11321C1.22149 7.11311 1.10486 6.99649 1.10467 6.85267V5.81022C1.10486 5.6664 1.22149 5.54977 1.36531 5.54958H1.62594V7.11321H1.36531ZM9.44406 8.67683C9.44358 9.10849 9.09381 9.45826 8.66225 9.45864H6.57735C6.52858 9.45864 6.48077 9.47238 6.43945 9.49834L4.75319 10.552V9.71928C4.75319 9.65018 4.7258 9.58385 4.67684 9.53499C4.62798 9.48613 4.56165 9.45864 4.49255 9.45864H2.92893C2.49737 9.45826 2.1476 9.10849 2.14712 8.67683V4.2466C2.1476 3.81503 2.49737 3.46526 2.92893 3.46478H8.66225C9.09381 3.46526 9.44358 3.81503 9.44406 4.2466V8.67683ZM10.4864 6.85267C10.4862 6.99649 10.3697 7.11302 10.2259 7.11321H9.96523V5.54958H10.2259C10.3697 5.54987 10.4862 5.6664 10.4864 5.81022V6.85267Z" fill="black"/>
<path d="M7.09871 4.50781C6.66714 4.50829 6.31737 4.85806 6.31689 5.28962C6.31689 5.43354 6.43352 5.55016 6.57743 5.55016C6.72145 5.55016 6.83807 5.43354 6.83807 5.28962C6.83807 5.14571 6.95479 5.02899 7.09871 5.02899C7.24262 5.02899 7.35925 5.14571 7.35925 5.28962C7.35925 5.43354 7.47596 5.55016 7.61988 5.55016C7.7638 5.55016 7.88052 5.43354 7.88052 5.28962C7.88004 4.85806 7.53027 4.50829 7.09871 4.50781Z" fill="black"/>
</g>
<defs>
<clipPath id="clip0_119001_7571">
<rect width="10.4274" height="10.4274" fill="white" transform="translate(0.563965 0.855469)"/>
</clipPath>
</defs>
</svg>
