<svg width="12" height="12" viewBox="0 0 12 12" fill="none" xmlns="http://www.w3.org/2000/svg">
<g clip-path="url(#clip0_119001_7470)">
<path d="M10.3534 8.39644L10.0004 7.51115C9.96702 7.42757 9.8723 7.38684 9.78866 7.42018C9.70508 7.45352 9.66435 7.54828 9.69768 7.63188L9.87674 8.08085L8.53668 7.30717V4.55573L9.87676 3.78203L9.69771 4.23104C9.66437 4.31462 9.7051 4.40938 9.7887 4.44272C9.8085 4.45062 9.8289 4.45435 9.849 4.45435C9.91373 4.45435 9.97495 4.41551 10.0004 4.35173L10.3534 3.46642C10.3719 3.42009 10.3682 3.36783 10.3432 3.32461C10.3182 3.2814 10.2749 3.25201 10.2255 3.24484L9.2823 3.10794C9.19314 3.09499 9.11056 3.15674 9.09766 3.24578C9.08473 3.33484 9.14646 3.4175 9.2355 3.43041L9.71386 3.49984L8.37378 4.27354L5.99096 2.89782V1.35044L6.29028 1.73C6.32242 1.77077 6.37014 1.79204 6.4183 1.79204C6.45362 1.79204 6.4892 1.78059 6.51909 1.75703C6.58974 1.70133 6.60184 1.59886 6.54612 1.52822L5.95591 0.779808C5.92504 0.740624 5.87789 0.717773 5.828 0.717773C5.7781 0.717773 5.73095 0.740644 5.70006 0.779828L5.10989 1.52824C5.05419 1.59888 5.06629 1.70133 5.13696 1.75705C5.20755 1.81275 5.31001 1.80065 5.36577 1.72998L5.66509 1.35042V2.89782L3.28228 4.27354L1.94222 3.49986L2.42057 3.43043C2.50961 3.4175 2.57132 3.33486 2.55841 3.2458C2.5455 3.15678 2.46302 3.09515 2.37377 3.10796L1.43056 3.24488C1.3812 3.25205 1.33782 3.28146 1.31287 3.32465C1.28792 3.36787 1.28417 3.42013 1.30265 3.46648L1.65571 4.35177C1.68115 4.41555 1.74237 4.45437 1.80709 4.45437C1.82717 4.45437 1.8476 4.45062 1.86741 4.44274C1.951 4.4094 1.99173 4.31464 1.95839 4.23104L1.77931 3.78205L3.11935 4.55571V7.30717L1.77927 8.08087L1.95833 7.63186C1.99167 7.54828 1.95093 7.45352 1.86733 7.42018C1.78385 7.38686 1.68899 7.42757 1.65565 7.51117L1.30261 8.39648C1.28413 8.44281 1.28788 8.49507 1.31285 8.53829C1.3378 8.58151 1.38116 8.61089 1.43052 8.61806L2.37373 8.75496C2.38167 8.75612 2.38956 8.75667 2.39734 8.75667C2.47695 8.75667 2.5466 8.69824 2.55837 8.61713C2.5713 8.52807 2.50957 8.4454 2.42053 8.43249L1.9422 8.36306L3.28228 7.58936L5.66509 8.96508V10.5124L5.36577 10.1329C5.31007 10.0622 5.20759 10.0501 5.13696 10.1059C5.06631 10.1616 5.05421 10.264 5.10993 10.3347L5.70012 11.0831C5.73101 11.1222 5.77814 11.1451 5.82804 11.1451C5.87793 11.1451 5.92508 11.1222 5.95598 11.0831L6.54614 10.3346C6.60184 10.264 6.58974 10.1616 6.51907 10.1058C6.44844 10.0501 6.346 10.0622 6.29026 10.1329L5.99094 10.5125V8.9651L8.37378 7.58936L9.71386 8.36306L9.23548 8.43251C9.14644 8.44544 9.08473 8.52809 9.09764 8.61715C9.10942 8.69824 9.17905 8.75669 9.25868 8.75669C9.26646 8.75669 9.27436 8.75614 9.28228 8.75498L10.2255 8.61806C10.2749 8.61089 10.3182 8.58149 10.3432 8.53829C10.3682 8.49505 10.3719 8.44281 10.3534 8.39644ZM5.82802 5.74333L5.25013 5.4097L7.47002 4.12803L8.0479 4.46168L5.82802 5.74333ZM3.60813 4.46168L5.82802 3.18001L6.40592 3.51367L4.18603 4.79534L3.60813 4.46168ZM4.34894 5.26563L4.76135 5.50373V6.285L4.34894 6.04691V5.26563ZM4.51187 4.98344L6.73175 3.70177L7.14416 3.93989L4.92428 5.22156L4.51187 4.98344ZM3.4452 4.74385L4.02309 5.07749V6.14098C4.02309 6.19918 4.05412 6.25297 4.10455 6.28207L4.84281 6.70831C4.86801 6.72287 4.89615 6.73014 4.92428 6.73014C4.9524 6.73014 4.98055 6.72287 5.00574 6.70831C5.05617 6.67921 5.08721 6.62544 5.08721 6.56721V5.69187L5.66509 6.0255V8.58882L3.4452 7.30717V4.74385ZM5.99094 8.58884V6.0255L8.21083 4.74385V7.30717L5.99094 8.58884Z" fill="#111111"/>
</g>
<defs>
<clipPath id="clip0_119001_7470">
<rect width="10.4274" height="10.4274" fill="white" transform="translate(0.614258 0.717773)"/>
</clipPath>
</defs>
</svg>
