<svg width="10" height="10" viewBox="0 0 10 10" fill="none" xmlns="http://www.w3.org/2000/svg">
<g clip-path="url(#clip0_119001_7437)">
<path d="M7.77823 2.80979L6.20018 2.58048L5.49445 1.15053C5.22186 0.598179 4.43365 0.598347 4.16116 1.15051L3.45543 2.58047L1.87737 2.80979C1.26778 2.89836 1.02445 3.648 1.46537 4.07783L2.60727 5.1909L2.33771 6.76253C2.23359 7.36966 2.8713 7.83272 3.41637 7.54625L4.82782 6.80416L6.23929 7.54625C6.7836 7.83238 7.42205 7.36956 7.31796 6.76253L7.0484 5.19088L8.19031 4.07781C8.6313 3.64783 8.38757 2.89834 7.77823 2.80979ZM7.74545 3.62153L6.48361 4.8515C6.40853 4.9247 6.37427 5.03016 6.39199 5.13351L6.68987 6.87029C6.70482 6.95751 6.61407 7.02337 6.53577 6.98224L4.97605 6.16226C4.88325 6.11347 4.77234 6.11347 4.67954 6.16226L3.11982 6.98224C3.04148 7.02341 2.95077 6.95749 2.96573 6.87029L3.2636 5.13351C3.28132 5.03016 3.24706 4.9247 3.17198 4.8515L1.91014 3.62153C1.84676 3.55975 1.88142 3.45312 1.969 3.44037L3.71281 3.18698C3.81657 3.17189 3.9063 3.10674 3.95271 3.0127L4.73258 1.43252C4.77172 1.35322 4.88387 1.35316 4.92303 1.43254L5.7029 3.0127C5.74931 3.10674 5.83904 3.17191 5.9428 3.18698L7.68661 3.44037C7.77417 3.45312 7.80882 3.55977 7.74545 3.62153Z" fill="black"/>
<path d="M2.56387 0.896041L2.18283 0.37158C2.07936 0.229249 1.88013 0.197661 1.7378 0.301124C1.59545 0.404549 1.56388 0.6038 1.66733 0.74615L2.04837 1.27059C2.15187 1.413 2.35111 1.44445 2.4934 1.34105C2.63575 1.23764 2.66732 1.03839 2.56387 0.896041Z" fill="black"/>
<path d="M1.29959 5.59623C1.24525 5.4289 1.0655 5.33724 0.89812 5.39168L0.269057 5.59608C0.10171 5.65046 0.0101402 5.83019 0.0645036 5.99755C0.11896 6.16518 0.299002 6.25643 0.465975 6.20211L1.09504 5.9977C1.2624 5.94332 1.35397 5.76358 1.29959 5.59623Z" fill="black"/>
<path d="M7.91772 0.301113C7.77539 0.197688 7.57613 0.229219 7.47269 0.371569L7.09164 0.896012C6.9882 1.03836 7.01977 1.23763 7.16212 1.34104C7.30452 1.4445 7.50375 1.41288 7.60714 1.27058L7.98819 0.746139C8.09162 0.60379 8.06007 0.404519 7.91772 0.301113Z" fill="black"/>
<path d="M9.38704 5.5961L8.75798 5.39169C8.59063 5.33722 8.41089 5.4289 8.3565 5.59625C8.30212 5.7636 8.39369 5.94336 8.56106 5.99772L9.19012 6.20212C9.35711 6.25643 9.53714 6.16518 9.59159 5.99757C9.64597 5.83022 9.55439 5.65048 9.38704 5.5961Z" fill="black"/>
<path d="M4.82788 8.06543C4.65193 8.06543 4.50928 8.20808 4.50928 8.38403V9.03068C4.50928 9.20663 4.65193 9.34928 4.82788 9.34928C5.00383 9.34928 5.14648 9.20663 5.14648 9.03068V8.38403C5.1465 8.20806 5.00385 8.06543 4.82788 8.06543Z" fill="black"/>
</g>
<defs>
<clipPath id="clip0_119001_7437">
<rect width="9.55841" height="9.55841" fill="white" transform="translate(0.0488281 0.015625)"/>
</clipPath>
</defs>
</svg>
