<svg width="10" height="10" viewBox="0 0 10 10" fill="none" xmlns="http://www.w3.org/2000/svg">
<g clip-path="url(#clip0_119001_7477)">
<path d="M9.50408 7.87594L8.40449 5.97155C8.70444 5.4157 8.85496 4.7915 8.84134 4.16003C8.82771 3.52856 8.65041 2.91144 8.32676 2.36904C8.00312 1.82664 7.54422 1.37753 6.99497 1.06567C6.44571 0.753798 5.82491 0.589844 5.19329 0.589844C4.56167 0.589844 3.94087 0.753798 3.39161 1.06567C2.84236 1.37753 2.38346 1.82664 2.05982 2.36904C1.73617 2.91144 1.55887 3.52856 1.54524 4.16003C1.53162 4.7915 1.68214 5.4157 1.98209 5.97155L0.882502 7.87594C0.860693 7.91354 0.848876 7.9561 0.848177 7.99957C0.847479 8.04303 0.857921 8.08595 0.87851 8.12423C0.899098 8.16252 0.929147 8.19489 0.965794 8.21827C1.00244 8.24165 1.04446 8.25526 1.08786 8.2578L2.09733 8.31839L2.65451 9.16239C2.67776 9.19739 2.70932 9.2261 2.74637 9.24594C2.78341 9.26578 2.8248 9.27614 2.86682 9.2761H2.87446C2.91783 9.2748 2.96014 9.26244 2.99739 9.24019C3.03464 9.21794 3.06558 9.18655 3.08728 9.14898L3.94367 7.66583C4.75122 7.95751 5.63536 7.95751 6.44291 7.66583L7.2993 9.14898C7.321 9.18655 7.35194 9.21794 7.38919 9.24019C7.42644 9.26244 7.46875 9.2748 7.51212 9.2761H7.51976C7.56183 9.27608 7.60324 9.26565 7.64029 9.24571C7.67734 9.22578 7.70888 9.19698 7.73207 9.16188L8.28925 8.31788L9.29872 8.2578C9.34212 8.25526 9.38414 8.24165 9.42079 8.21827C9.45743 8.19489 9.48748 8.16252 9.50807 8.12423C9.52866 8.08595 9.5391 8.04303 9.5384 7.99957C9.5377 7.9561 9.52589 7.91354 9.50408 7.87594ZM2.85257 8.53783L2.45204 7.9311C2.43024 7.89814 2.40108 7.87071 2.36685 7.85097C2.33262 7.83123 2.29427 7.81974 2.25483 7.81739L1.52963 7.77377L2.29335 6.44998C2.39204 6.57857 2.49901 6.70057 2.61361 6.81521C2.86815 7.0703 3.15895 7.28642 3.47661 7.45657L2.85257 8.53783ZM2.05354 4.23553C2.05354 2.50442 3.46219 1.09578 5.19329 1.09578C6.92439 1.09578 8.33304 2.50442 8.33304 4.23553C8.33304 5.96663 6.92439 7.37528 5.19329 7.37528C3.46219 7.37528 2.05354 5.96663 2.05354 4.23553ZM8.13175 7.81739C8.09231 7.81974 8.05396 7.83123 8.01973 7.85097C7.9855 7.87071 7.95634 7.89814 7.93454 7.9311L7.53418 8.53749L6.91048 7.45708C7.22799 7.28673 7.51862 7.07044 7.77297 6.81521C7.88738 6.70067 7.99419 6.57878 8.09272 6.45032L8.85644 7.77411L8.13175 7.81739Z" fill="#111111"/>
<path d="M7.46455 3.51527C7.44166 3.44392 7.39915 3.38046 7.34189 3.33214C7.28462 3.28382 7.21491 3.25259 7.14073 3.24202L6.0442 3.08164L5.55372 2.08388C5.52065 2.01652 5.46936 1.95978 5.40568 1.92009C5.34199 1.88041 5.26845 1.85938 5.19341 1.85938C5.11837 1.85938 5.04483 1.88041 4.98115 1.92009C4.91746 1.95978 4.86617 2.01652 4.8331 2.08388L4.34262 3.08164L3.24609 3.24169C3.17194 3.25261 3.10232 3.28402 3.04507 3.33238C2.98782 3.38075 2.94521 3.44413 2.92205 3.51541C2.89888 3.58668 2.89608 3.66301 2.91396 3.73579C2.93185 3.80857 2.9697 3.87491 3.02325 3.92734L3.81735 4.7043L3.63067 5.80168C3.6175 5.87572 3.62542 5.95197 3.65352 6.02173C3.68161 6.09148 3.72876 6.15193 3.78956 6.19617C3.85037 6.24042 3.9224 6.26667 3.99741 6.27194C4.07243 6.27721 4.14741 6.26128 4.21381 6.22597L5.19341 5.70817L6.17386 6.22563C6.24028 6.26066 6.31519 6.27637 6.39009 6.27098C6.46499 6.26559 6.53688 6.23931 6.5976 6.19513C6.65832 6.15095 6.70544 6.09064 6.73361 6.02103C6.76179 5.95143 6.76989 5.87532 6.757 5.80134L6.56947 4.70396L7.36357 3.927C7.41727 3.87471 7.4552 3.8084 7.47306 3.7356C7.49091 3.66281 7.48796 3.58647 7.46455 3.51527ZM6.17335 4.3798C6.12695 4.4254 6.09231 4.48157 6.07238 4.5435C6.05246 4.60542 6.04786 4.67126 6.05896 4.73536L6.21917 5.67338L5.38129 5.23212C5.32361 5.2016 5.25934 5.18566 5.19409 5.18566C5.12884 5.18566 5.06457 5.2016 5.00689 5.23212L4.169 5.67338L4.32786 4.73536C4.33888 4.6712 4.33417 4.60533 4.31413 4.5434C4.29408 4.48147 4.25931 4.42533 4.21279 4.3798L3.53291 3.71451L4.47144 3.57772C4.53598 3.56829 4.59726 3.54327 4.64995 3.50483C4.70265 3.46638 4.74518 3.41567 4.77387 3.35709L5.19341 2.50461L5.61227 3.35658C5.64096 3.41517 5.68349 3.46587 5.73619 3.50432C5.78889 3.54276 5.85016 3.56778 5.9147 3.57721L6.85323 3.71401L6.17335 4.3798Z" fill="#111111"/>
</g>
<defs>
<clipPath id="clip0_119001_7477">
<rect width="8.68946" height="8.68946" fill="white" transform="translate(0.848633 0.586914)"/>
</clipPath>
</defs>
</svg>
