<svg width="11" height="11" viewBox="0 0 11 11" fill="none" xmlns="http://www.w3.org/2000/svg">
<g clip-path="url(#clip0_119001_7581)">
<path d="M7.08106 1.10352V1.71178C7.08106 1.95511 7.08106 2.07677 7.0337 2.16971C6.99205 2.25146 6.92558 2.31793 6.84383 2.35958C6.75089 2.40694 6.62923 2.40694 6.3859 2.40694H5.16938C4.92605 2.40694 4.80439 2.40694 4.71145 2.35958C4.6297 2.31793 4.56323 2.25146 4.52158 2.16971C4.47422 2.07677 4.47422 1.95511 4.47422 1.71178V1.10352M4.12664 9.79298H7.42864C7.91529 9.79298 8.15862 9.79298 8.3445 9.69827C8.508 9.61496 8.64093 9.48203 8.72424 9.31853C8.81895 9.13265 8.81895 8.88932 8.81895 8.40266V2.49383C8.81895 2.00717 8.81895 1.76385 8.72424 1.57797C8.64093 1.41447 8.508 1.28153 8.3445 1.19823C8.15862 1.10352 7.91529 1.10352 7.42864 1.10352H4.12664C3.63999 1.10352 3.39666 1.10352 3.21078 1.19823C3.04728 1.28153 2.91435 1.41447 2.83104 1.57797C2.73633 1.76385 2.73633 2.00717 2.73633 2.49383V8.40266C2.73633 8.88932 2.73633 9.13265 2.83104 9.31853C2.91435 9.48203 3.04728 9.61496 3.21078 9.69827C3.39666 9.79298 3.63999 9.79298 4.12664 9.79298Z" stroke="black" stroke-width="0.65171" stroke-linecap="round" stroke-linejoin="round"/>
</g>
<defs>
<clipPath id="clip0_119001_7581">
<rect width="10.4274" height="10.4274" fill="white" transform="translate(0.563965 0.234375)"/>
</clipPath>
</defs>
</svg>
